<?xml version="1.0" ?><svg fill="none" height="24" viewBox="0 0 24 24" width="24" xmlns="http://www.w3.org/2000/svg"><g id="Motorcycle"><path clip-rule="evenodd" d="M17 4.25C17.4142 4.25 17.75 4.58579 17.75 5V15C17.75 16.5188 16.5188 17.75 15 17.75H1C0.585786 17.75 0.25 17.4142 0.25 17C0.25 16.5858 0.585786 16.25 1 16.25H15C15.6904 16.25 16.25 15.6904 16.25 15V5C16.25 4.58579 16.5858 4.25 17 4.25Z" fill="black" fill-rule="evenodd" id="Vector 4 (Stroke)"/><path clip-rule="evenodd" d="M16.25 13C16.25 12.5858 16.5858 12.25 17 12.25H18.3075C19.537 12.25 20.7496 12.5363 21.8492 13.0861C23.0141 13.6685 23.75 14.8592 23.75 16.1616V17C23.75 17.4142 23.4142 17.75 23 17.75H17C16.5858 17.75 16.25 17.4142 16.25 17V13ZM17.75 13.75V16.25H22.25V16.1616C22.25 15.4273 21.8351 14.7561 21.1784 14.4277C20.287 13.982 19.3041 13.75 18.3075 13.75H17.75Z" fill="black" fill-rule="evenodd" id="Rectangle 2 (Stroke)"/><path clip-rule="evenodd" d="M0.25 13C0.25 9.82436 2.82436 7.25 6 7.25H9.61257C10.807 7.25 11.6505 8.42022 11.2728 9.5534L9.92233 13.6047C9.8368 13.8613 9.8368 14.1387 9.92233 14.3953L10.7115 16.7628C10.7877 16.9915 10.7494 17.243 10.6084 17.4385C10.4675 17.6341 10.2411 17.75 10 17.75H1C0.585786 17.75 0.25 17.4142 0.25 17V13ZM6 8.75C3.65279 8.75 1.75 10.6528 1.75 13V16.25H8.95943L8.49931 14.8696C8.31114 14.3051 8.31114 13.6949 8.49931 13.1304L9.84974 9.07906C9.90371 8.91717 9.78321 8.75 9.61257 8.75H6Z" fill="black" fill-rule="evenodd" id="Rectangle 3 (Stroke)"/><path clip-rule="evenodd" d="M16.25 5.5C16.25 4.25736 17.2574 3.25 18.5 3.25H20C20.4142 3.25 20.75 3.58579 20.75 4V7C20.75 7.41421 20.4142 7.75 20 7.75H18.5C17.2574 7.75 16.25 6.74264 16.25 5.5ZM18.5 4.75C18.0858 4.75 17.75 5.08579 17.75 5.5C17.75 5.91421 18.0858 6.25 18.5 6.25H19.25V4.75H18.5Z" fill="black" fill-rule="evenodd" id="Rectangle 4 (Stroke)"/><path clip-rule="evenodd" d="M14.25 5C14.25 4.58579 14.5858 4.25 15 4.25H17C17.4142 4.25 17.75 4.58579 17.75 5C17.75 5.41421 17.4142 5.75 17 5.75H15C14.5858 5.75 14.25 5.41421 14.25 5Z" fill="black" fill-rule="evenodd" id="Vector 5 (Stroke)"/><path clip-rule="evenodd" d="M1.25 8C1.25 7.58579 1.58579 7.25 2 7.25H11.5C11.9142 7.25 12.25 7.58579 12.25 8C12.25 8.41421 11.9142 8.75 11.5 8.75H2C1.58579 8.75 1.25 8.41421 1.25 8Z" fill="black" fill-rule="evenodd" id="Vector 6 (Stroke)"/><path clip-rule="evenodd" d="M18 16.25C18.4142 16.25 18.75 16.5858 18.75 17C18.75 17.6904 19.3096 18.25 20 18.25C20.6904 18.25 21.25 17.6904 21.25 17C21.25 16.5858 21.5858 16.25 22 16.25C22.4142 16.25 22.75 16.5858 22.75 17C22.75 18.5188 21.5188 19.75 20 19.75C18.4812 19.75 17.25 18.5188 17.25 17C17.25 16.5858 17.5858 16.25 18 16.25Z" fill="black" fill-rule="evenodd" id="Ellipse 4 (Stroke)"/><path clip-rule="evenodd" d="M3 16.25C3.41421 16.25 3.75 16.5858 3.75 17C3.75 17.6904 4.30964 18.25 5 18.25C5.69036 18.25 6.25 17.6904 6.25 17C6.25 16.5858 6.58579 16.25 7 16.25C7.41421 16.25 7.75 16.5858 7.75 17C7.75 18.5188 6.51878 19.75 5 19.75C3.48122 19.75 2.25 18.5188 2.25 17C2.25 16.5858 2.58579 16.25 3 16.25Z" fill="black" fill-rule="evenodd" id="Ellipse 5 (Stroke)"/></g></svg>